<?xml version="1.0" encoding="UTF-8" standalone="no"?><!DOCTYPE svg PUBLIC "-//W3C//DTD SVG 1.1//EN" "http://www.w3.org/Graphics/SVG/1.1/DTD/svg11.dtd"><svg width="100%" height="100%" viewBox="0 0 157 157" version="1.1" xmlns="http://www.w3.org/2000/svg" xmlns:xlink="http://www.w3.org/1999/xlink" xml:space="preserve" xmlns:serif="http://www.serif.com/" style="fill-rule:evenodd;clip-rule:evenodd;stroke-linejoin:round;stroke-miterlimit:2;"><g transform="matrix(1.5625,0,0,1.5625,-234.375,0)"><rect id="Artboard2" x="150" y="0" width="100" height="100" style="fill:none;"/><clipPath id="_clip1"><rect id="Artboard21" serif:id="Artboard2" x="150" y="0" width="100" height="100"/></clipPath><g clip-path="url(#_clip1)"><g id="Affinity-Designer" serif:id="Affinity Designer" transform="matrix(0.279101,0,0,0.277709,139.31457,-10.679708)"><g transform="matrix(0.349896,0,0,0.351649,38.2852,38.4565)"><path d="M1024,100c0,-55.192 -44.808,-100 -100,-100l-824,0c-55.192,0 -100,44.808 -100,100l0,824c0,55.192 44.808,100 100,100l824,0c55.192,0 100,-44.808 100,-100l0,-824Z" style="fill:#134881;"/></g><g transform="matrix(0.349896,0,0,0.351649,-496.356,38.4565)"><path d="M2477,909.311c-0.17,21.934 -18.03,39.689 -40,39.689l-403.69,0l-172.55,-298.876l616.24,0l0,259.187Zm-874,-0.311l0,-175.487l380.19,-658.513l148.58,0l-321.19,556.33l183.4,317.67l-350.98,0c-22.08,0 -40,-17.923 -40,-40Zm487.17,-292.956l-150.22,0c-16.77,0 -32.27,-8.8 -40.65,-23.327c-8.39,-14.518 -8.39,-32.417 0,-46.935c33.37,-57.8 75.15,-130.17 75.15,-130.17l115.72,200.432Zm346.83,-541.044c21.97,0 39.83,17.755 40,39.689l0,501.355l-347.48,0l-135.41,-234.495l176.99,-306.549l265.9,0Z" style="fill:url(#_Radial2);"/></g></g></g></g><defs><radialGradient id="_Radial2" cx="0" cy="0" r="1" gradientUnits="userSpaceOnUse" gradientTransform="matrix(1038.26,0,0,1038.26,2271.03,-89.2591)"><stop offset="0" style="stop-color:#6be1fb;stop-opacity:1"/><stop offset="1" style="stop-color:#38bdfa;stop-opacity:1"/></radialGradient></defs></svg>